# xmcd
#
# Track frame offsets: 
#        150
#        17884
#        33347
#        51178
#        66709
#        80362
#        91761
#        109647
#        125685
#        137810
#        156386
#        174427
#
# Disc length: 2564 seconds
#
# Revision: 0
# Processed by: cddbd v1.5.2PL0 Copyright (c) Steve Scherf et al.
# Submitted via: ExactAudioCopyFreeDBPlugin 1.0
#
DISCID=a20a020c
DTITLE=The Sweet Remains - Laurel and Sunset
DYEAR=2009
DGENRE=Blues
TTITLE0=Dance With Me
TTITLE1=Love Song
TTITLE2=Moving in Slow Motion
TTITLE3=Spark
TTITLE4=So Lonely
TTITLE5=Easy
TTITLE6=Ghosts In The Orange Blossom Air
TTITLE7=Leading Me Home
TTITLE8=Printemps Á Paris
TTITLE9=Both Your Hands
TTITLE10=What I'm Looking For
TTITLE11=Winslow's Lullaby
EXTD=
EXTT0=
EXTT1=
EXTT2=
EXTT3=
EXTT4=
EXTT5=
EXTT6=
EXTT7=
EXTT8=
EXTT9=
EXTT10=
EXTT11=
PLAYORDER=
